<svg width="27" height="27" viewBox="0 0 27 27" fill="none" xmlns="http://www.w3.org/2000/svg">
<circle cx="13.5" cy="13.5" r="13.5" fill="white"/>
<path d="M18.466 14.5867L14.3887 18.6267V20H15.7725L19.843 15.9533M20.9043 14.3867L20.0445 13.5333C20.0122 13.4979 19.9728 13.4696 19.9289 13.45C19.8849 13.4305 19.8374 13.4203 19.7893 13.42C19.6885 13.4267 19.5945 13.46 19.5273 13.5333L18.8556 14.2L20.2326 15.5333L20.9043 14.8667C21.0319 14.7333 21.0319 14.52 20.9043 14.3867ZM13.0453 17.3333H8.34341V10.6667L13.717 14L19.0907 10.6667V12H20.4341V9.33333C20.4341 8.6 19.8296 8 19.0907 8H8.34341C7.60453 8 7 8.6 7 9.33333V17.3333C7 18.0667 7.60453 18.6667 8.34341 18.6667H13.0453V17.3333ZM19.0907 9.33333L13.717 12.6667L8.34341 9.33333H19.0907Z" fill="#186940"/>
</svg>
