<svg width="27" height="27" viewBox="0 0 27 27" fill="none" xmlns="http://www.w3.org/2000/svg">
<circle cx="13.5" cy="13.5" r="13.5" fill="white"/>
<path d="M18.34 16.2533C17.52 16.2533 16.7267 16.12 15.9867 15.88C15.8707 15.8407 15.7461 15.8349 15.627 15.8632C15.5079 15.8915 15.3992 15.9528 15.3133 16.04L14.2667 17.3533C12.38 16.4533 10.6133 14.7533 9.67333 12.8L10.9733 11.6933C11.1533 11.5067 11.2067 11.2467 11.1333 11.0133C10.8867 10.2733 10.76 9.48 10.76 8.66C10.76 8.3 10.46 8 10.1 8H7.79333C7.43333 8 7 8.16 7 8.66C7 14.8533 12.1533 20 18.34 20C18.8133 20 19 19.58 19 19.2133V16.9133C19 16.5533 18.7 16.2533 18.34 16.2533Z" fill="#186940"/>
</svg>
