<svg width="30" height="30" viewBox="0 0 30 30" fill="none" xmlns="http://www.w3.org/2000/svg">
<path d="M15.0996 29.5667V7.04004" stroke="white" stroke-width="0.5"/>
<path d="M15.3476 7.00918L14.8512 7.01097C14.6299 8.90082 14.5056 10.7754 14.4229 12.6607C14.3401 14.5461 14.2987 16.4179 14.2987 18.3034C14.2987 20.1888 14.3401 22.0606 14.4229 23.946C14.5056 25.8297 14.6161 27.7058 14.8514 29.5976H15.3476C15.5829 27.7057 15.6934 25.816 15.7761 23.9461L15.7761 23.946C15.8589 22.0606 15.9003 20.1888 15.9003 18.3034C15.9003 16.4179 15.8589 14.5461 15.7761 12.6607C15.6934 10.7771 15.5829 8.90101 15.3476 7.00918Z" fill="white" stroke="white" stroke-width="0.5"/>
<path d="M21.365 14.813L15.1 20.8946" stroke="white" stroke-width="0.5"/>
<path d="M21.5851 14.9311L21.9701 14.2125L21.2484 14.5917C20.5562 14.9555 19.9378 15.3875 19.3408 15.8412L19.3408 15.8412L19.3386 15.8429C18.7534 16.2983 18.1959 16.7813 17.6663 17.292C17.1366 17.8028 16.6349 18.3411 16.161 18.9069L16.161 18.9069L16.1592 18.9092C15.6873 19.4864 15.2349 20.0873 14.8656 20.7766L14.4964 21.4655L15.1969 21.1187C15.9065 20.7673 16.5273 20.3334 17.1121 19.8784C17.6973 19.423 18.2548 18.9399 18.7844 18.4292L18.7844 18.4292L18.7868 18.4269C19.3147 17.9041 19.8158 17.3666 20.2896 16.8007L20.2897 16.8007L20.2915 16.7984C20.7633 16.2212 21.2158 15.6203 21.5851 14.9311Z" fill="white" stroke="white" stroke-width="0.5"/>
<path d="M8.75247 11.9766L15.1001 18.3037" stroke="white" stroke-width="0.5"/>
<path d="M8.87037 11.7561L8.14328 11.3673L8.532 12.0944C8.91425 12.8095 9.36565 13.4232 9.83765 14.0143C10.3135 14.6103 10.8298 15.1627 11.3557 15.6973C11.8842 16.2344 12.4422 16.7458 13.0433 17.2167C13.6309 17.7014 14.2634 18.1471 14.9685 18.5241L15.7065 18.9188L15.3058 18.184C14.9246 17.4848 14.4744 16.8587 14.0012 16.2659C13.5253 15.6699 13.0091 15.1175 12.4832 14.583C11.9542 14.0454 11.3958 13.5336 10.7941 13.0624C10.2103 12.5944 9.57752 12.1343 8.87037 11.7561Z" fill="white" stroke="white" stroke-width="0.5"/>
<mask id="path-7-outside-1_2_64" maskUnits="userSpaceOnUse" x="0" y="0.367676" width="30" height="25" fill="black">
<rect fill="white" y="0.367676" width="30" height="25"/>
<path d="M15.0998 24.2625L12.7452 24.3444L10.3907 24.4125C10.0051 24.4262 9.60582 24.4398 9.20651 24.4262C8.8072 24.4125 8.40789 24.3716 8.00858 24.3034C7.20996 24.1671 6.43888 23.9216 5.7091 23.5671C4.9931 23.1989 4.30463 22.7489 3.72632 22.1899C3.13424 21.6308 2.62478 21.0035 2.2117 20.2945C1.79862 19.599 1.4957 18.8354 1.28916 18.0445C1.23408 17.8536 1.19277 17.6491 1.15146 17.4445C1.12392 17.24 1.08262 17.0491 1.06885 16.8445C1.02754 16.4491 1 16.04 1 15.6309C1.01377 14.8128 1.13769 13.9946 1.41308 13.2037C1.55077 12.8083 1.72977 12.4265 1.95008 12.0719C2.04647 11.881 2.18416 11.7174 2.29431 11.5401L2.48709 11.2947C2.55593 11.2129 2.62478 11.1311 2.69362 11.0492L2.91393 10.8174L3.1067 10.6129C3.17555 10.5447 3.23063 10.4765 3.2857 10.4083L3.46471 10.1902C3.74009 9.86291 4.05679 9.57655 4.37348 9.31747C4.53871 9.19475 4.70394 9.05839 4.86918 8.9493C5.02064 8.84021 5.1721 8.73112 5.30979 8.62203C5.59895 8.39022 5.87433 8.14477 6.12218 7.88569C6.63165 7.35388 7.05849 6.76754 7.4165 6.12664C7.80204 5.41757 8.27019 4.72213 8.82097 4.10851C9.37174 3.49489 10.0189 2.94945 10.7349 2.5131C11.4509 2.07675 12.2495 1.76312 13.0757 1.58585C13.2822 1.54494 13.4888 1.50404 13.6953 1.47676L14.3149 1.40858L14.6041 1.38131C14.7142 1.36768 14.8244 1.36768 14.9208 1.36768C15.1273 1.36768 15.3338 1.36768 15.5542 1.38131C16.3803 1.42222 17.2065 1.57222 18.0051 1.84494C18.8037 2.10402 19.5473 2.49946 20.222 3.004C20.8966 3.50853 21.475 4.12215 21.9431 4.80395C22.0533 4.98122 22.1772 5.14485 22.2736 5.32212C22.3837 5.49939 22.4801 5.67665 22.5627 5.86756L22.6867 6.12664C22.728 6.20846 22.7693 6.29028 22.8106 6.37209C22.907 6.53572 22.9896 6.68572 23.0997 6.83572C23.5128 7.4357 24.0085 7.98114 24.5868 8.44477C24.7245 8.56749 24.876 8.66294 25.0274 8.77203C25.1927 8.89475 25.3579 9.00384 25.5231 9.12657C25.8536 9.37201 26.1565 9.64473 26.4457 9.91745C27.024 10.4902 27.5472 11.1311 27.9603 11.8401C28.3734 12.5492 28.6901 13.3128 28.8828 14.1037C29.0756 14.8946 29.1445 15.6991 29.1169 16.5309C29.0481 17.3491 28.8553 18.1263 28.5937 18.8899C28.3183 19.6399 27.9603 20.3763 27.4921 21.0308C27.024 21.6853 26.4457 22.2717 25.7985 22.7489C25.1514 23.2262 24.4216 23.5944 23.6643 23.8398C22.907 24.0853 22.1221 24.2353 21.3373 24.3034C20.5524 24.3716 19.7676 24.3307 18.9827 24.2762C19.7676 24.2762 20.5524 24.2625 21.3235 24.1398C22.0946 24.0307 22.8519 23.8398 23.5679 23.5535C24.2839 23.2671 24.9586 22.8853 25.5369 22.408C26.129 21.9308 26.6384 21.3717 27.0378 20.7308C27.2443 20.4172 27.4233 20.0899 27.5885 19.749C27.74 19.4081 27.8777 19.0536 27.9878 18.699C28.2081 17.99 28.3596 17.2264 28.3871 16.5036C28.3871 15.7673 28.3045 15.0173 28.1118 14.3082C27.919 13.5992 27.6161 12.9174 27.2168 12.2901C26.8174 11.6629 26.3355 11.1038 25.7985 10.5993C25.5231 10.3538 25.234 10.1084 24.9311 9.89018C24.7796 9.78109 24.6281 9.67201 24.4767 9.56292C24.3114 9.44019 24.1324 9.33111 23.981 9.19475C23.3338 8.69021 22.7417 8.09023 22.2736 7.40843C22.1497 7.2448 22.0395 7.06753 21.9431 6.89026C21.888 6.79481 21.833 6.71299 21.7917 6.61754L21.654 6.35846C21.5713 6.19482 21.4887 6.03119 21.3786 5.8812C21.2822 5.71756 21.1858 5.56757 21.0756 5.41757C20.6488 4.83122 20.1531 4.29942 19.561 3.86307C18.9827 3.44035 18.3218 3.09945 17.6333 2.86764C16.9449 2.63582 16.2151 2.5131 15.4715 2.47219C15.2925 2.45856 15.0998 2.45856 14.9208 2.47219C14.8244 2.47219 14.7418 2.48583 14.6592 2.48583L14.3562 2.5131L13.8055 2.56764C13.6265 2.59492 13.4475 2.63582 13.2685 2.6631C12.5524 2.81309 11.8778 3.08581 11.2581 3.45399C10.6385 3.82216 10.074 4.29942 9.57828 4.84486C9.08258 5.3903 8.6695 6.00392 8.3115 6.64481C7.91219 7.36752 7.4165 8.04932 6.83819 8.62203C6.54903 8.90839 6.23234 9.19475 5.90187 9.44019C5.73664 9.56292 5.57141 9.68564 5.40618 9.79473C5.25472 9.90382 5.10325 9.99927 4.95179 10.122C4.66264 10.3402 4.38725 10.5856 4.16694 10.8447L4.08432 10.9402L4.02925 11.0765C3.9604 11.1583 3.89155 11.2265 3.80894 11.3083L3.58863 11.5265L3.39586 11.7174C3.32701 11.7856 3.27194 11.8538 3.21686 11.9219L3.05163 12.1265C2.95524 12.2765 2.83132 12.4128 2.7487 12.5765C2.55593 12.8765 2.40447 13.2037 2.26678 13.5446C2.00516 14.2128 1.86747 14.9491 1.8537 15.6855C1.83993 16.0537 1.8537 16.4218 1.88124 16.79C1.895 16.9809 1.92254 17.1582 1.95008 17.3354C1.97762 17.5127 2.01893 17.7036 2.06024 17.8809C2.22547 18.6036 2.48708 19.299 2.84509 19.9536C3.20309 20.6081 3.65748 21.2081 4.18071 21.7399C4.70394 22.2717 5.32356 22.7217 5.98449 23.0898C6.64542 23.458 7.36142 23.7307 8.10496 23.8944C8.47673 23.9762 8.86227 24.0307 9.23405 24.058C9.61959 24.0853 10.0051 24.0853 10.4044 24.0989L12.759 24.1671L15.0998 24.2625Z"/>
</mask>
<path d="M15.0998 24.2625L12.7452 24.3444L10.3907 24.4125C10.0051 24.4262 9.60582 24.4398 9.20651 24.4262C8.8072 24.4125 8.40789 24.3716 8.00858 24.3034C7.20996 24.1671 6.43888 23.9216 5.7091 23.5671C4.9931 23.1989 4.30463 22.7489 3.72632 22.1899C3.13424 21.6308 2.62478 21.0035 2.2117 20.2945C1.79862 19.599 1.4957 18.8354 1.28916 18.0445C1.23408 17.8536 1.19277 17.6491 1.15146 17.4445C1.12392 17.24 1.08262 17.0491 1.06885 16.8445C1.02754 16.4491 1 16.04 1 15.6309C1.01377 14.8128 1.13769 13.9946 1.41308 13.2037C1.55077 12.8083 1.72977 12.4265 1.95008 12.0719C2.04647 11.881 2.18416 11.7174 2.29431 11.5401L2.48709 11.2947C2.55593 11.2129 2.62478 11.1311 2.69362 11.0492L2.91393 10.8174L3.1067 10.6129C3.17555 10.5447 3.23063 10.4765 3.2857 10.4083L3.46471 10.1902C3.74009 9.86291 4.05679 9.57655 4.37348 9.31747C4.53871 9.19475 4.70394 9.05839 4.86918 8.9493C5.02064 8.84021 5.1721 8.73112 5.30979 8.62203C5.59895 8.39022 5.87433 8.14477 6.12218 7.88569C6.63165 7.35388 7.05849 6.76754 7.4165 6.12664C7.80204 5.41757 8.27019 4.72213 8.82097 4.10851C9.37174 3.49489 10.0189 2.94945 10.7349 2.5131C11.4509 2.07675 12.2495 1.76312 13.0757 1.58585C13.2822 1.54494 13.4888 1.50404 13.6953 1.47676L14.3149 1.40858L14.6041 1.38131C14.7142 1.36768 14.8244 1.36768 14.9208 1.36768C15.1273 1.36768 15.3338 1.36768 15.5542 1.38131C16.3803 1.42222 17.2065 1.57222 18.0051 1.84494C18.8037 2.10402 19.5473 2.49946 20.222 3.004C20.8966 3.50853 21.475 4.12215 21.9431 4.80395C22.0533 4.98122 22.1772 5.14485 22.2736 5.32212C22.3837 5.49939 22.4801 5.67665 22.5627 5.86756L22.6867 6.12664C22.728 6.20846 22.7693 6.29028 22.8106 6.37209C22.907 6.53572 22.9896 6.68572 23.0997 6.83572C23.5128 7.4357 24.0085 7.98114 24.5868 8.44477C24.7245 8.56749 24.876 8.66294 25.0274 8.77203C25.1927 8.89475 25.3579 9.00384 25.5231 9.12657C25.8536 9.37201 26.1565 9.64473 26.4457 9.91745C27.024 10.4902 27.5472 11.1311 27.9603 11.8401C28.3734 12.5492 28.6901 13.3128 28.8828 14.1037C29.0756 14.8946 29.1445 15.6991 29.1169 16.5309C29.0481 17.3491 28.8553 18.1263 28.5937 18.8899C28.3183 19.6399 27.9603 20.3763 27.4921 21.0308C27.024 21.6853 26.4457 22.2717 25.7985 22.7489C25.1514 23.2262 24.4216 23.5944 23.6643 23.8398C22.907 24.0853 22.1221 24.2353 21.3373 24.3034C20.5524 24.3716 19.7676 24.3307 18.9827 24.2762C19.7676 24.2762 20.5524 24.2625 21.3235 24.1398C22.0946 24.0307 22.8519 23.8398 23.5679 23.5535C24.2839 23.2671 24.9586 22.8853 25.5369 22.408C26.129 21.9308 26.6384 21.3717 27.0378 20.7308C27.2443 20.4172 27.4233 20.0899 27.5885 19.749C27.74 19.4081 27.8777 19.0536 27.9878 18.699C28.2081 17.99 28.3596 17.2264 28.3871 16.5036C28.3871 15.7673 28.3045 15.0173 28.1118 14.3082C27.919 13.5992 27.6161 12.9174 27.2168 12.2901C26.8174 11.6629 26.3355 11.1038 25.7985 10.5993C25.5231 10.3538 25.234 10.1084 24.9311 9.89018C24.7796 9.78109 24.6281 9.67201 24.4767 9.56292C24.3114 9.44019 24.1324 9.33111 23.981 9.19475C23.3338 8.69021 22.7417 8.09023 22.2736 7.40843C22.1497 7.2448 22.0395 7.06753 21.9431 6.89026C21.888 6.79481 21.833 6.71299 21.7917 6.61754L21.654 6.35846C21.5713 6.19482 21.4887 6.03119 21.3786 5.8812C21.2822 5.71756 21.1858 5.56757 21.0756 5.41757C20.6488 4.83122 20.1531 4.29942 19.561 3.86307C18.9827 3.44035 18.3218 3.09945 17.6333 2.86764C16.9449 2.63582 16.2151 2.5131 15.4715 2.47219C15.2925 2.45856 15.0998 2.45856 14.9208 2.47219C14.8244 2.47219 14.7418 2.48583 14.6592 2.48583L14.3562 2.5131L13.8055 2.56764C13.6265 2.59492 13.4475 2.63582 13.2685 2.6631C12.5524 2.81309 11.8778 3.08581 11.2581 3.45399C10.6385 3.82216 10.074 4.29942 9.57828 4.84486C9.08258 5.3903 8.6695 6.00392 8.3115 6.64481C7.91219 7.36752 7.4165 8.04932 6.83819 8.62203C6.54903 8.90839 6.23234 9.19475 5.90187 9.44019C5.73664 9.56292 5.57141 9.68564 5.40618 9.79473C5.25472 9.90382 5.10325 9.99927 4.95179 10.122C4.66264 10.3402 4.38725 10.5856 4.16694 10.8447L4.08432 10.9402L4.02925 11.0765C3.9604 11.1583 3.89155 11.2265 3.80894 11.3083L3.58863 11.5265L3.39586 11.7174C3.32701 11.7856 3.27194 11.8538 3.21686 11.9219L3.05163 12.1265C2.95524 12.2765 2.83132 12.4128 2.7487 12.5765C2.55593 12.8765 2.40447 13.2037 2.26678 13.5446C2.00516 14.2128 1.86747 14.9491 1.8537 15.6855C1.83993 16.0537 1.8537 16.4218 1.88124 16.79C1.895 16.9809 1.92254 17.1582 1.95008 17.3354C1.97762 17.5127 2.01893 17.7036 2.06024 17.8809C2.22547 18.6036 2.48708 19.299 2.84509 19.9536C3.20309 20.6081 3.65748 21.2081 4.18071 21.7399C4.70394 22.2717 5.32356 22.7217 5.98449 23.0898C6.64542 23.458 7.36142 23.7307 8.10496 23.8944C8.47673 23.9762 8.86227 24.0307 9.23405 24.058C9.61959 24.0853 10.0051 24.0853 10.4044 24.0989L12.759 24.1671L15.0998 24.2625Z" fill="white"/>
<path d="M15.0998 24.2625L12.7452 24.3444L10.3907 24.4125C10.0051 24.4262 9.60582 24.4398 9.20651 24.4262C8.8072 24.4125 8.40789 24.3716 8.00858 24.3034C7.20996 24.1671 6.43888 23.9216 5.7091 23.5671C4.9931 23.1989 4.30463 22.7489 3.72632 22.1899C3.13424 21.6308 2.62478 21.0035 2.2117 20.2945C1.79862 19.599 1.4957 18.8354 1.28916 18.0445C1.23408 17.8536 1.19277 17.6491 1.15146 17.4445C1.12392 17.24 1.08262 17.0491 1.06885 16.8445C1.02754 16.4491 1 16.04 1 15.6309C1.01377 14.8128 1.13769 13.9946 1.41308 13.2037C1.55077 12.8083 1.72977 12.4265 1.95008 12.0719C2.04647 11.881 2.18416 11.7174 2.29431 11.5401L2.48709 11.2947C2.55593 11.2129 2.62478 11.1311 2.69362 11.0492L2.91393 10.8174L3.1067 10.6129C3.17555 10.5447 3.23063 10.4765 3.2857 10.4083L3.46471 10.1902C3.74009 9.86291 4.05679 9.57655 4.37348 9.31747C4.53871 9.19475 4.70394 9.05839 4.86918 8.9493C5.02064 8.84021 5.1721 8.73112 5.30979 8.62203C5.59895 8.39022 5.87433 8.14477 6.12218 7.88569C6.63165 7.35388 7.05849 6.76754 7.4165 6.12664C7.80204 5.41757 8.27019 4.72213 8.82097 4.10851C9.37174 3.49489 10.0189 2.94945 10.7349 2.5131C11.4509 2.07675 12.2495 1.76312 13.0757 1.58585C13.2822 1.54494 13.4888 1.50404 13.6953 1.47676L14.3149 1.40858L14.6041 1.38131C14.7142 1.36768 14.8244 1.36768 14.9208 1.36768C15.1273 1.36768 15.3338 1.36768 15.5542 1.38131C16.3803 1.42222 17.2065 1.57222 18.0051 1.84494C18.8037 2.10402 19.5473 2.49946 20.222 3.004C20.8966 3.50853 21.475 4.12215 21.9431 4.80395C22.0533 4.98122 22.1772 5.14485 22.2736 5.32212C22.3837 5.49939 22.4801 5.67665 22.5627 5.86756L22.6867 6.12664C22.728 6.20846 22.7693 6.29028 22.8106 6.37209C22.907 6.53572 22.9896 6.68572 23.0997 6.83572C23.5128 7.4357 24.0085 7.98114 24.5868 8.44477C24.7245 8.56749 24.876 8.66294 25.0274 8.77203C25.1927 8.89475 25.3579 9.00384 25.5231 9.12657C25.8536 9.37201 26.1565 9.64473 26.4457 9.91745C27.024 10.4902 27.5472 11.1311 27.9603 11.8401C28.3734 12.5492 28.6901 13.3128 28.8828 14.1037C29.0756 14.8946 29.1445 15.6991 29.1169 16.5309C29.0481 17.3491 28.8553 18.1263 28.5937 18.8899C28.3183 19.6399 27.9603 20.3763 27.4921 21.0308C27.024 21.6853 26.4457 22.2717 25.7985 22.7489C25.1514 23.2262 24.4216 23.5944 23.6643 23.8398C22.907 24.0853 22.1221 24.2353 21.3373 24.3034C20.5524 24.3716 19.7676 24.3307 18.9827 24.2762C19.7676 24.2762 20.5524 24.2625 21.3235 24.1398C22.0946 24.0307 22.8519 23.8398 23.5679 23.5535C24.2839 23.2671 24.9586 22.8853 25.5369 22.408C26.129 21.9308 26.6384 21.3717 27.0378 20.7308C27.2443 20.4172 27.4233 20.0899 27.5885 19.749C27.74 19.4081 27.8777 19.0536 27.9878 18.699C28.2081 17.99 28.3596 17.2264 28.3871 16.5036C28.3871 15.7673 28.3045 15.0173 28.1118 14.3082C27.919 13.5992 27.6161 12.9174 27.2168 12.2901C26.8174 11.6629 26.3355 11.1038 25.7985 10.5993C25.5231 10.3538 25.234 10.1084 24.9311 9.89018C24.7796 9.78109 24.6281 9.67201 24.4767 9.56292C24.3114 9.44019 24.1324 9.33111 23.981 9.19475C23.3338 8.69021 22.7417 8.09023 22.2736 7.40843C22.1497 7.2448 22.0395 7.06753 21.9431 6.89026C21.888 6.79481 21.833 6.71299 21.7917 6.61754L21.654 6.35846C21.5713 6.19482 21.4887 6.03119 21.3786 5.8812C21.2822 5.71756 21.1858 5.56757 21.0756 5.41757C20.6488 4.83122 20.1531 4.29942 19.561 3.86307C18.9827 3.44035 18.3218 3.09945 17.6333 2.86764C16.9449 2.63582 16.2151 2.5131 15.4715 2.47219C15.2925 2.45856 15.0998 2.45856 14.9208 2.47219C14.8244 2.47219 14.7418 2.48583 14.6592 2.48583L14.3562 2.5131L13.8055 2.56764C13.6265 2.59492 13.4475 2.63582 13.2685 2.6631C12.5524 2.81309 11.8778 3.08581 11.2581 3.45399C10.6385 3.82216 10.074 4.29942 9.57828 4.84486C9.08258 5.3903 8.6695 6.00392 8.3115 6.64481C7.91219 7.36752 7.4165 8.04932 6.83819 8.62203C6.54903 8.90839 6.23234 9.19475 5.90187 9.44019C5.73664 9.56292 5.57141 9.68564 5.40618 9.79473C5.25472 9.90382 5.10325 9.99927 4.95179 10.122C4.66264 10.3402 4.38725 10.5856 4.16694 10.8447L4.08432 10.9402L4.02925 11.0765C3.9604 11.1583 3.89155 11.2265 3.80894 11.3083L3.58863 11.5265L3.39586 11.7174C3.32701 11.7856 3.27194 11.8538 3.21686 11.9219L3.05163 12.1265C2.95524 12.2765 2.83132 12.4128 2.7487 12.5765C2.55593 12.8765 2.40447 13.2037 2.26678 13.5446C2.00516 14.2128 1.86747 14.9491 1.8537 15.6855C1.83993 16.0537 1.8537 16.4218 1.88124 16.79C1.895 16.9809 1.92254 17.1582 1.95008 17.3354C1.97762 17.5127 2.01893 17.7036 2.06024 17.8809C2.22547 18.6036 2.48708 19.299 2.84509 19.9536C3.20309 20.6081 3.65748 21.2081 4.18071 21.7399C4.70394 22.2717 5.32356 22.7217 5.98449 23.0898C6.64542 23.458 7.36142 23.7307 8.10496 23.8944C8.47673 23.9762 8.86227 24.0307 9.23405 24.058C9.61959 24.0853 10.0051 24.0853 10.4044 24.0989L12.759 24.1671L15.0998 24.2625Z" stroke="white" mask="url(#path-7-outside-1_2_64)"/>
</svg>
